<svg width="48" height="48" viewBox="0 0 48 48" fill="none" xmlns="http://www.w3.org/2000/svg">
<rect opacity="0.1" width="48" height="48" rx="24" fill="#6D5DD3"/>
<path d="M30.7812 26.75C30.7812 23.0039 27.7461 19.9688 24 19.9688C20.2539 19.9688 17.2188 23.0039 17.2188 26.75C17.2188 30.1406 19.6797 32.957 22.9336 33.4492V28.7188H21.2109V26.75H22.9336V25.2734C22.9336 23.5781 23.9453 22.6211 25.4766 22.6211C26.2422 22.6211 27.0078 22.7578 27.0078 22.7578V24.4258H26.1602C25.3125 24.4258 25.0391 24.9453 25.0391 25.4922V26.75H26.9258L26.625 28.7188H25.0391V33.4492C28.293 32.957 30.7812 30.1406 30.7812 26.75Z" fill="white"/>
</svg>
