<svg width="48" height="48" viewBox="0 0 48 48" fill="none" xmlns="http://www.w3.org/2000/svg">
<rect opacity="0.1" width="48" height="48" rx="24" fill="#6D5DD3"/>
<path d="M22.2305 30.6328C22.2305 30.5781 22.1758 30.5234 22.0938 30.5234C22.0117 30.5234 21.957 30.5781 21.957 30.6328C21.957 30.6875 22.0117 30.7422 22.0938 30.7148C22.1758 30.7148 22.2305 30.6875 22.2305 30.6328ZM21.3828 30.4961C21.3828 30.5508 21.4375 30.6328 21.5195 30.6328C21.5742 30.6602 21.6562 30.6328 21.6836 30.5781C21.6836 30.5234 21.6562 30.4688 21.5742 30.4414C21.4922 30.4141 21.4102 30.4414 21.3828 30.4961ZM22.6133 30.4688C22.5312 30.4688 22.4766 30.5234 22.4766 30.6055C22.4766 30.6602 22.5586 30.6875 22.6406 30.6602C22.7227 30.6328 22.7773 30.6055 22.75 30.5508C22.75 30.4961 22.668 30.4414 22.6133 30.4688ZM24.3906 19.9688C20.6172 19.9688 17.7188 22.8672 17.7188 26.6406C17.7188 29.6758 19.6055 32.2734 22.3398 33.2031C22.6953 33.2578 22.8047 33.0391 22.8047 32.875C22.8047 32.6836 22.8047 31.7539 22.8047 31.1797C22.8047 31.1797 20.8906 31.5898 20.4805 30.3594C20.4805 30.3594 20.1797 29.5664 19.7422 29.375C19.7422 29.375 19.1133 28.9375 19.7695 28.9375C19.7695 28.9375 20.4531 28.9922 20.8359 29.6484C21.4375 30.7148 22.4219 30.4141 22.832 30.2227C22.8867 29.7852 23.0508 29.4844 23.2695 29.293C21.7383 29.1289 20.1797 28.9102 20.1797 26.2852C20.1797 25.5195 20.3984 25.1641 20.8359 24.6719C20.7539 24.4805 20.5352 23.7695 20.918 22.8125C21.4648 22.6484 22.8047 23.5508 22.8047 23.5508C23.3516 23.3867 23.9258 23.332 24.5 23.332C25.1016 23.332 25.6758 23.3867 26.2227 23.5508C26.2227 23.5508 27.5352 22.6211 28.1094 22.8125C28.4922 23.7695 28.2461 24.4805 28.1914 24.6719C28.6289 25.1641 28.9023 25.5195 28.9023 26.2852C28.9023 28.9102 27.2891 29.1289 25.7578 29.293C26.0039 29.5117 26.2227 29.9219 26.2227 30.5781C26.2227 31.4805 26.1953 32.6289 26.1953 32.8477C26.1953 33.0391 26.332 33.2578 26.6875 33.1758C29.4219 32.2734 31.2812 29.6758 31.2812 26.6406C31.2812 22.8672 28.1914 19.9688 24.3906 19.9688ZM20.3711 29.4023C20.3164 29.4297 20.3438 29.5117 20.3711 29.5664C20.4258 29.5938 20.4805 29.6211 20.5352 29.5938C20.5625 29.5664 20.5625 29.4844 20.5078 29.4297C20.4531 29.4023 20.3984 29.375 20.3711 29.4023ZM20.0703 29.1836C20.043 29.2383 20.0703 29.2656 20.125 29.293C20.1797 29.3203 20.2344 29.3203 20.2617 29.2656C20.2617 29.2383 20.2344 29.2109 20.1797 29.1836C20.125 29.1562 20.0977 29.1562 20.0703 29.1836ZM20.9453 30.168C20.918 30.1953 20.918 30.2773 21 30.332C21.0547 30.3867 21.1367 30.4141 21.1641 30.3594C21.1914 30.332 21.1914 30.25 21.1367 30.1953C21.082 30.1406 21 30.1133 20.9453 30.168ZM20.6445 29.7578C20.5898 29.7852 20.5898 29.8672 20.6445 29.9219C20.6992 29.9766 20.7539 30.0039 20.8086 29.9766C20.8359 29.9492 20.8359 29.8672 20.8086 29.8125C20.7539 29.7578 20.6992 29.7305 20.6445 29.7578Z" fill="white"/>
</svg>
