<svg width="48" height="48" viewBox="0 0 48 48" fill="none" xmlns="http://www.w3.org/2000/svg">
<rect opacity="0.1" width="48" height="48" rx="24" fill="#6D5DD3"/>
<path d="M24.5 23.6055C25.0469 23.6055 25.5664 23.7695 26.0586 24.043C26.5508 24.3164 26.9336 24.6992 27.207 25.1914C27.4805 25.6836 27.6445 26.2031 27.6445 26.75C27.6445 27.3242 27.4805 27.8438 27.207 28.3359C26.9336 28.8281 26.5508 29.2109 26.0586 29.4844C25.5664 29.7578 25.0469 29.8945 24.5 29.8945C23.9258 29.8945 23.4062 29.7578 22.9141 29.4844C22.4219 29.2109 22.0391 28.8281 21.7656 28.3359C21.4922 27.8438 21.3555 27.3242 21.3555 26.75C21.3555 26.2031 21.4922 25.6836 21.7656 25.1914C22.0391 24.6992 22.4219 24.3164 22.9141 24.043C23.4062 23.7695 23.9258 23.6055 24.5 23.6055ZM24.5 28.8008C25.0469 28.8008 25.5391 28.6094 25.9492 28.1992C26.332 27.8164 26.5508 27.3242 26.5508 26.75C26.5508 26.2031 26.332 25.7109 25.9492 25.3008C25.5391 24.918 25.0469 24.6992 24.5 24.6992C23.9258 24.6992 23.4336 24.918 23.0508 25.3008C22.6406 25.7109 22.4492 26.2031 22.4492 26.75C22.4492 27.3242 22.6406 27.8164 23.0508 28.1992C23.4336 28.6094 23.9258 28.8008 24.5 28.8008ZM28.5195 23.4688C28.5195 23.2773 28.4375 23.1133 28.3008 22.9492C28.1367 22.8125 27.9727 22.7305 27.7812 22.7305C27.5625 22.7305 27.3984 22.8125 27.2617 22.9492C27.0977 23.1133 27.043 23.2773 27.043 23.4688C27.043 23.6875 27.0977 23.8516 27.2617 23.9883C27.3984 24.1523 27.5625 24.207 27.7812 24.207C27.9727 24.207 28.1367 24.1523 28.2734 23.9883C28.4102 23.8516 28.4922 23.6875 28.5195 23.4688ZM30.5977 24.207C30.5977 24.7266 30.625 25.5742 30.625 26.75C30.625 27.9531 30.5977 28.8008 30.5703 29.3203C30.543 29.8398 30.4609 30.2773 30.3516 30.6602C30.1875 31.125 29.9141 31.5352 29.5859 31.8633C29.2578 32.1914 28.8477 32.4375 28.4102 32.6016C28.0273 32.7383 27.5625 32.8203 27.043 32.8477C26.5234 32.875 25.6758 32.875 24.5 32.875C23.2969 32.875 22.4492 32.875 21.9297 32.8477C21.4102 32.8203 20.9727 32.7383 20.5898 32.5742C20.125 32.4375 19.7148 32.1914 19.3867 31.8633C19.0586 31.5352 18.8125 31.125 18.6484 30.6602C18.5117 30.2773 18.4297 29.8398 18.4023 29.3203C18.375 28.8008 18.375 27.9531 18.375 26.75C18.375 25.5742 18.375 24.7266 18.4023 24.207C18.4297 23.6875 18.5117 23.2227 18.6484 22.8398C18.8125 22.4023 19.0586 21.9922 19.3867 21.6641C19.7148 21.3359 20.125 21.0625 20.5898 20.8984C20.9727 20.7891 21.4102 20.707 21.9297 20.6797C22.4492 20.6523 23.2969 20.625 24.5 20.625C25.6758 20.625 26.5234 20.6523 27.043 20.6797C27.5625 20.707 28.0273 20.7891 28.4102 20.8984C28.8477 21.0625 29.2578 21.3359 29.5859 21.6641C29.9141 21.9922 30.1875 22.4023 30.3516 22.8398C30.4609 23.2227 30.543 23.6875 30.5977 24.207ZM29.2852 30.3594C29.3945 30.0586 29.4492 29.5664 29.5039 28.8828C29.5039 28.5 29.5312 27.9258 29.5312 27.1875V26.3125C29.5312 25.5742 29.5039 25 29.5039 24.6172C29.4492 23.9336 29.3945 23.4414 29.2852 23.1406C29.0664 22.5938 28.6562 22.1836 28.1094 21.9648C27.8086 21.8555 27.3164 21.8008 26.6328 21.7461C26.2227 21.7461 25.6484 21.7188 24.9375 21.7188H24.0625C23.3242 21.7188 22.75 21.7461 22.3672 21.7461C21.6836 21.8008 21.1914 21.8555 20.8906 21.9648C20.3164 22.1836 19.9336 22.5938 19.7148 23.1406C19.6055 23.4414 19.5234 23.9336 19.4961 24.6172C19.4688 25.0273 19.4688 25.6016 19.4688 26.3125V27.1875C19.4688 27.9258 19.4688 28.5 19.4961 28.8828C19.5234 29.5664 19.6055 30.0586 19.7148 30.3594C19.9336 30.9336 20.3438 31.3164 20.8906 31.5352C21.1914 31.6445 21.6836 31.7266 22.3672 31.7539C22.75 31.7812 23.3242 31.7812 24.0625 31.7812H24.9375C25.6758 31.7812 26.25 31.7812 26.6328 31.7539C27.3164 31.7266 27.8086 31.6445 28.1094 31.5352C28.6562 31.3164 29.0664 30.9062 29.2852 30.3594Z" fill="white"/>
</svg>
